<?xml version="1.0" encoding="UTF-8"?>
<svg id="Layer_2" data-name="Layer 2" xmlns="http://www.w3.org/2000/svg" viewBox="0 0 255.01 74.06">
  <defs>
    <style>
      .cls-1 {
        fill: #fff;
      }
    </style>
  </defs>
  <g id="Layer_1-2" data-name="Layer 1">
    <g>
      <polygon class="cls-1" points="226.8 .07 209.77 57.89 255.01 57.99 255.01 74.03 185.68 74.05 172.87 32.45 160.12 74 140.72 74.04 132.14 45.06 105.96 45.06 105.96 74.06 85.58 74 85.58 .07 105.96 .01 105.96 29 127.35 28.98 118.92 .09 141.41 0 151.77 45.96 163.94 .07 181.76 .02 193.92 46.04 204.31 0 226.8 .07"/>
      <polygon class="cls-1" points="46.76 66.05 47.16 74.01 27 73.98 28.9 51.63 10.47 64.4 .01 46.6 20.35 37.12 0 27.59 10.46 9.67 28.97 22.45 26.95 .07 47.17 .08 46.8 7.81 45.56 22.46 64.07 9.61 74.28 27.58 54.15 37.11 74.3 46.61 64.07 64.4 45.66 51.62 46.76 66.05"/>
    </g>
  </g>
</svg>